<?xml version="1.0" encoding="UTF-8" standalone="no"?>
<!-- Created with Inkscape (http://www.inkscape.org/) -->

<svg
   xmlns:dc="http://purl.org/dc/elements/1.1/"
   xmlns:cc="http://creativecommons.org/ns#"
   xmlns:rdf="http://www.w3.org/1999/02/22-rdf-syntax-ns#"
   xmlns:svg="http://www.w3.org/2000/svg"
   xmlns="http://www.w3.org/2000/svg"
   xmlns:sodipodi="http://sodipodi.sourceforge.net/DTD/sodipodi-0.dtd"
   xmlns:inkscape="http://www.inkscape.org/namespaces/inkscape"
   id="svg3454"
   version="1.1"
   inkscape:version="0.91 r13725"
   width="51.299999"
   height="39"
   viewBox="0 0 51.299999 39"
   sodipodi:docname="initials.svg">
  <metadata
     id="metadata3460">
    <rdf:RDF>
      <cc:Work
         rdf:about="">
        <dc:format>image/svg+xml</dc:format>
        <dc:type
           rdf:resource="http://purl.org/dc/dcmitype/StillImage" />
        <dc:title></dc:title>
      </cc:Work>
    </rdf:RDF>
  </metadata>
  <defs
     id="defs3458" />
  <sodipodi:namedview
     pagecolor="#ffffff"
     bordercolor="#666666"
     borderopacity="1"
     objecttolerance="10"
     gridtolerance="10"
     guidetolerance="10"
     inkscape:pageopacity="0"
     inkscape:pageshadow="2"
     inkscape:window-width="640"
     inkscape:window-height="480"
     id="namedview3456"
     showgrid="false"
     inkscape:zoom="6.0428851"
     inkscape:cx="25.65"
     inkscape:cy="19.5"
     inkscape:window-x="111"
     inkscape:window-y="71"
     inkscape:window-maximized="0"
     inkscape:current-layer="svg3454" />
  <path
     style="fill:#000000"
     d="m 0.88108385,37.844501 c -0.613803,-0.667059 -0.965378,-1.308177 -0.863696,-1.575 0.09432,-0.2475 0.24641,-0.82125 0.33798,-1.275 0.09157,-0.45375 0.278479,-0.825 0.415354,-0.825 0.53405095,0 2.97613625,-2.884353 2.97613625,-3.515121 0,-0.211683 0.21375,-0.384879 0.4749999,-0.384879 0.2612502,0 0.4197243,-0.165827 0.3521652,-0.368505 -0.1291656,-0.387497 -0.064007,-0.49805 1.0490298,-1.779865 0.3812859,-0.439103 1.0263729,-1.236732 1.4335263,-1.772508 0.4071533,-0.535776 0.9084569,-1.145045 1.1140082,-1.353931 0.2499387,-0.253994 0.2880963,-0.610893 0.1151994,-1.077492 -0.4829724,-1.303403 0.7928817,-3.847699 1.9294541,-3.847699 0.625139,0 1.599397,-1.061485 1.99627,-2.175 0.161723,-0.45375 0.415835,-0.825 0.564694,-0.825 0.148859,0 0.270653,-0.192142 0.270653,-0.426983 0,-0.23484 0.318368,-0.80859 0.707483,-1.274999 0.389117,-0.46641 0.888736,-1.354268 1.110267,-1.973018 0.221531,-0.61875 0.51863,-1.125 0.660221,-1.125 0.141591,0 0.174004,-0.135 0.07203,-0.3 -0.101976,-0.165 -0.06405,-0.3 0.08428,-0.3 0.148328,0 0.448541,-0.541932 0.66714,-1.204294 0.218599,-0.6623616 0.569029,-1.3466896 0.778734,-1.5207286 0.209705,-0.17404 0.467845,-0.710559 0.573646,-1.192266 0.1058,-0.481707 0.316978,-0.952846 0.469284,-1.046976 0.152301,-0.09413 0.276915,-0.4331777 0.276915,-0.75344 0,-0.3202623 0.142967,-0.5822949 0.317705,-0.5822949 0.174737,0 0.243724,-0.1197036 0.153303,-0.2660079 -0.09042,-0.1463043 0.02249,-0.4211142 0.250913,-0.6106887 0.228423,-0.1895742 0.501162,-0.7786206 0.606087,-1.308992 0.307633,-1.5550063 1.441066,-2.6160041 2.782602,-2.6047704 1.256831,0.010524 2.18939,0.5529785 2.18939,1.2735318 0,0.2568099 0.114456,0.5119272 0.254346,0.5669272 0.325437,0.1279501 0.728955,2.6496769 0.424199,2.6509693 -0.199585,8.466e-4 -0.321345,1.2597546 -0.485919,5.0240302 -0.02344,0.53625 -0.160751,0.975 -0.305126,0.975 -0.144375,0 -0.183399,0.395508 -0.08672,0.878906 0.09668,0.483399 0.05717,0.922149 -0.0878,0.975 -0.321629,0.117258 -0.04125,1.746094 0.30056,1.746094 0.133979,0 0.446098,-0.2025 0.693598,-0.45 0.2475,-0.2475 0.528372,-0.45 0.624159,-0.45 0.09579,0 0.597953,-0.405 1.115923,-0.9 0.51797,-0.495 1.056742,-0.9 1.19727,-0.9 0.140528,0 0.255505,-0.2025 0.255505,-0.45 0,-0.2475 0.255365,-0.45 0.567478,-0.45 0.369152,0 0.639434,-0.288325 0.773372,-0.825 0.113248,-0.4537496 0.378109,-1.0274996 0.588583,-1.2749996 0.210474,-0.2475 0.548907,-1.260774 0.75207,-2.251722 0.47064,-2.2955945 0.947151,-2.9700959 1.961313,-2.7762269 0.424329,0.081116 0.843753,0.030588 0.932052,-0.1122837 0.0883,-0.142872 0.49008,-0.2597673 0.892842,-0.2597673 0.402762,0 0.732294,-0.135 0.732294,-0.3 0,-0.165 0.2025,-0.3 0.45,-0.3 0.2475,0 0.45,-0.1453724 0.45,-0.3230499 0,-0.2122558 0.71685,-0.2784832 2.090172,-0.1931037 1.68663,0.104858 2.295126,0.2862746 3.151764,0.9396639 0.583878,0.4453446 1.1958,0.726774 1.359828,0.6253986 0.164031,-0.1013754 0.298236,-0.064164 0.298236,0.082692 0,0.1468563 0.3375,0.4476357 0.75,0.6683991 0.4125,0.2207634 0.75,0.5194674 0.75,0.6637872 0,0.1443195 0.3375,0.6263778 0.75,1.0712406 0.4125,0.4448621 0.75,0.9789711 0.75,1.1869071 0,0.207936 0.135,0.378065 0.3,0.378065 0.165,0 0.3,0.2025 0.3,0.45 0,0.2475 0.135,0.45 0.3,0.45 0.165,0 0.3,0.2025 0.3,0.45 0,0.2475 0.135,0.45 0.3,0.45 0.165,0 0.3,0.3295326 0.3,0.7322946 0,0.402762 0.135,0.815729 0.3,0.917705 0.165,0.101976 0.3,0.521647 0.3,0.932603 0,0.410956 0.181197,1.111739 0.402663,1.557295 0.663777,1.335431 1.201683,7.262022 0.799041,8.803719 -0.901722,3.452623 -1.322187,4.398886 -2.561577,5.76486 -0.17043,0.187838 -0.618375,0.780273 -0.99543,1.316523 -0.377055,0.53625 -0.931917,0.975 -1.23303,0.975 -0.30111,0 -0.622884,0.196518 -0.715056,0.43671 -0.196857,0.513003 -4.438698,2.56329 -5.30319,2.56329 -0.326382,0 -0.593421,0.112632 -0.593421,0.250296 0,0.137664 -1.38375,0.395682 -3.075,0.573372 -4.815417,0.505932 -8.325,-0.223632 -8.325,-1.730583 0,-0.326196 -0.135,-0.593085 -0.3,-0.593085 -0.570333,0 -0.297486,-1.475241 0.402268,-2.174995 0.703649,-0.703649 1.30501,-3.225005 0.769185,-3.225005 -0.149299,0 -0.271453,-0.2025 -0.271453,-0.45 0,-0.2475 0.10125,-0.450255 0.225,-0.450568 0.12375,-3e-4 0.224609,-1.046562 0.22413,-2.325 -4.8e-4,-1.278437 0.04851,-2.437451 0.108869,-2.575585 0.246458,-0.564055 0.25285,-4.698847 0.0073,-4.698847 -0.145894,0 -0.265262,0.128863 -0.265262,0.286363 0,0.354416 -1.433396,1.813637 -1.781539,1.813637 -0.139847,0 -0.331974,0.2025 -0.426948,0.45 -0.09498,0.2475 -0.379419,0.45 -0.632097,0.45 -0.252716,0 -0.459452,0.135 -0.459452,0.3 0,0.165 -0.186122,0.3 -0.413604,0.3 -0.227482,0 -0.556577,0.37125 -0.731321,0.825 -0.379788,0.986177 -0.922463,4.602954 -0.911517,6.075 0.0076,1.028278 -0.219197,6.38463 -0.301747,7.125 -0.023,0.20625 -0.176811,0.375 -0.341811,0.375 -0.165,0 -0.57,0.27 -0.9,0.6 -0.33,0.33 -0.817515,0.6 -1.083366,0.6 -0.819426,0 -5.816634,-4.392384 -5.816634,-5.112633 0,-0.158052 -0.124608,-0.287367 -0.276907,-0.287367 -0.152299,0 -0.824622,-0.558752 -1.49405,-1.241671 -1.021499,-1.042085 -1.290433,-1.180847 -1.673093,-0.863267 -0.250773,0.208123 -0.45595,0.554017 -0.45595,0.768654 0,0.214637 -0.3375,0.791345 -0.7499998,1.281573 -0.4125002,0.49023 -0.7500002,1.030944 -0.7500002,1.20159 0,0.170646 -0.16875,0.488658 -0.375,0.706692 -0.7433742,0.785853 -2.0249999,2.612379 -2.0249999,2.885955 0,0.153756 -0.265578,0.617187 -0.5901735,1.029843 -0.3245955,0.412656 -0.5045955,0.835863 -0.3999999,0.940458 0.1045953,0.104595 0.041771,0.190173 -0.1396104,0.190173 -0.1813809,0 -0.4154784,0.27 -0.5202162,0.6 -0.1047378,0.33 -0.4433679,0.6 -0.7525113,0.6 -0.3091431,0 -0.645513,0.135 -0.7474887,0.3 -0.4149606,0.671421 -1.6972613,0.281883 -2.71577425,-0.825 z M 18.31732,29.515934 c 0.108708,-0.579463 0.127464,-1.321963 0.04168,-1.65 -0.08578,-0.328038 -0.04981,-0.596433 0.07993,-0.596433 0.129747,0 0.218358,-0.74546 0.196914,-1.656577 l -0.03899,-1.656577 -1.35,0.169773 c -2.757179,0.346737 -3.248158,0.469437 -3.606589,0.90132 -0.256407,0.308952 -0.265484,0.442061 -0.03014,0.442061 0.185204,0 0.336734,0.268856 0.336734,0.597458 0,0.328601 0.27,0.766076 0.6,0.972164 0.33,0.206088 0.6,0.547627 0.6,0.758974 0,0.211347 0.3375,0.538043 0.75,0.72599 0.4125,0.187948 0.75,0.455053 0.75,0.593568 0,0.302573 0.962686,1.391522 1.261406,1.426847 0.116273,0.01374 0.300349,-0.449106 0.409056,-1.028568 z m 17.829537,0.0036 c 0.4125,-0.235806 1.25625,-0.433523 1.875,-0.439369 0.61875,-0.0058 1.125,-0.145631 1.125,-0.310631 0,-0.165 0.2025,-0.3 0.45,-0.3 0.2475,0 0.45,-0.135 0.45,-0.3 0,-0.165 0.2025,-0.3 0.45,-0.3 0.2475,0 0.45,-0.135 0.45,-0.3 0,-0.165 0.182787,-0.3 0.406194,-0.3 0.223404,0 0.770361,-0.3375 1.215456,-0.75 0.445095,-0.4125 0.888675,-0.75 0.985734,-0.75 0.313533,0 0.973251,-1.035404 0.983076,-1.542903 0.0052,-0.271097 0.199149,-0.565663 0.430893,-0.654592 0.768999,-0.295093 1.07424,-2.808045 0.735177,-6.052505 -0.473994,-4.5356 -1.642533,-6.965172 -4.450536,-9.2533386 -0.988167,-0.805231 -2.492355,-1.287576 -2.639421,-0.846377 -0.06412,0.192344 -0.307824,0.349716 -0.541572,0.349716 -0.233751,0 -0.425001,0.135 -0.425001,0.3 0,0.165 -0.2025,0.3 -0.45,0.3 -1.02747,0 -1.747134,1.233797 -1.822719,3.1248846 -0.04012,1.003813 -0.297108,3.086913 -0.571083,4.62911 -0.273975,1.542197 -0.427098,2.989123 -0.340269,3.215392 0.08683,0.226269 0.02328,0.494583 -0.141234,0.596253 -0.164505,0.10167 -0.220209,0.433421 -0.123786,0.737224 0.09642,0.303804 -0.03899,1.787515 -0.300909,3.297136 -0.261924,1.509621 -0.388377,3.021547 -0.28101,3.359836 0.10737,0.338289 0.0581,0.699811 -0.109476,0.803382 -0.16758,0.103571 -0.23379,0.559217 -0.147129,1.012546 0.132519,0.693233 0.306969,0.822546 1.097589,0.813605 0.517014,-0.0058 1.277526,-0.203563 1.690026,-0.439369 z M 18.37549,18.549426 c 0.851765,-0.296927 0.925513,-0.437977 1.019767,-1.950408 0.111815,-1.794238 -0.205722,-2.128336 -0.693353,-0.729517 -0.172558,0.495 -0.422329,0.9 -0.555046,0.9 -0.193147,0 -0.9,1.566676 -0.9,1.994767 0,0.158256 0.128573,0.133781 1.128632,-0.214842 z"
     id="path3464"
     inkscape:connector-curvature="0" />
</svg>
